HIERARCHY
ROOT Hips
{
	OFFSET 0.00000 0.00000 0.00000
	CHANNELS 6 Xposition Yposition Zposition Zrotation Yrotation Xrotation 
	JOINT LHipJoint
	{
		OFFSET 0 0 0
		CHANNELS 3 Zrotation Yrotation Xrotation
		JOINT LeftUpLeg
		{
			OFFSET 1.73240 -1.89999 0.57994
			CHANNELS 3 Zrotation Yrotation Xrotation
			JOINT LeftLeg
			{
				OFFSET 2.43106 -6.67930 0.00000
				CHANNELS 3 Zrotation Yrotation Xrotation
				JOINT LeftFoot
				{
					OFFSET 2.78854 -7.66147 0.00000
					CHANNELS 3 Zrotation Yrotation Xrotation
					JOINT LeftToeBase
					{
						OFFSET 0.17314 -0.47571 2.01064
						CHANNELS 3 Zrotation Yrotation Xrotation
						End Site
						{
							OFFSET 0.00000 -0.00000 1.04147
						}
					}
				}
			}
		}
	}
	JOINT RHipJoint
	{
		OFFSET 0 0 0
		CHANNELS 3 Zrotation Yrotation Xrotation
		JOINT RightUpLeg
		{
			OFFSET -1.57078 -1.89998 0.57994
			CHANNELS 3 Zrotation Yrotation Xrotation
			JOINT RightLeg
			{
				OFFSET -2.50166 -6.87326 0.00000
				CHANNELS 3 Zrotation Yrotation Xrotation
				JOINT RightFoot
				{
					OFFSET -2.77304 -7.61886 0.00000
					CHANNELS 3 Zrotation Yrotation Xrotation
					JOINT RightToeBase
					{
						OFFSET -0.23513 -0.64602 2.11039
						CHANNELS 3 Zrotation Yrotation Xrotation
						End Site
						{
							OFFSET -0.00000 -0.00000 1.10597
						}
					}
				}
			}
		}
	}
	JOINT LowerBack
	{
		OFFSET 0 0 0
		CHANNELS 3 Zrotation Yrotation Xrotation
		JOINT Spine
		{
			OFFSET -0.00908 2.00015 -0.35323
			CHANNELS 3 Zrotation Yrotation Xrotation
			JOINT Spine1
			{
				OFFSET 0.05647 2.02258 0.04270
				CHANNELS 3 Zrotation Yrotation Xrotation
				JOINT Neck
				{
					OFFSET 0 0 0
					CHANNELS 3 Zrotation Yrotation Xrotation
					JOINT Neck1
					{
						OFFSET -0.02074 1.73711 0.13117
						CHANNELS 3 Zrotation Yrotation Xrotation
						JOINT Head
						{
							OFFSET -0.02359 1.73615 -0.24320
							CHANNELS 3 Zrotation Yrotation Xrotation
							End Site
							{
								OFFSET -0.00579 1.75982 -0.09688
							}
						}
					}
				}
				JOINT LeftShoulder
				{
					OFFSET 0 0 0
					CHANNELS 3 Zrotation Yrotation Xrotation
					JOINT LeftArm
					{
						OFFSET 3.20537 1.11432 -0.27680
						CHANNELS 3 Zrotation Yrotation Xrotation
						JOINT LeftForeArm
						{
							OFFSET 5.05923 -0.00000 -0.00000
							CHANNELS 3 Zrotation Yrotation Xrotation
							JOINT LeftHand
							{
								OFFSET 3.51996 -0.00000 0.00000
								CHANNELS 3 Zrotation Yrotation Xrotation
								JOINT LeftFingerBase
								{
									OFFSET 0 0 0
									CHANNELS 3 Zrotation Yrotation Xrotation
									JOINT LeftHandIndex1
									{
										OFFSET 0.65238 -0.00000 0.00000
										CHANNELS 3 Zrotation Yrotation Xrotation
										End Site
										{
											OFFSET 0.52596 -0.00000 0.00000
										}
									}
								}
								JOINT LThumb
								{
									OFFSET 0 0 0
									CHANNELS 3 Zrotation Yrotation Xrotation
									End Site
									{
										OFFSET 0.53399 -0.00000 0.53399
									}
								}
							}
						}
					}
				}
				JOINT RightShoulder
				{
					OFFSET 0 0 0
					CHANNELS 3 Zrotation Yrotation Xrotation
					JOINT RightArm
					{
						OFFSET -2.96983 1.42602 -0.37449
						CHANNELS 3 Zrotation Yrotation Xrotation
						JOINT RightForeArm
						{
							OFFSET -5.40867 -0.00000 0.00000
							CHANNELS 3 Zrotation Yrotation Xrotation
							JOINT RightHand
							{
								OFFSET -3.12964 -0.00000 0.00000
								CHANNELS 3 Zrotation Yrotation Xrotation
								JOINT RightFingerBase
								{
									OFFSET 0 0 0
									CHANNELS 3 Zrotation Yrotation Xrotation
									JOINT RightHandIndex1
									{
										OFFSET -0.83271 -0.00000 0.00000
										CHANNELS 3 Zrotation Yrotation Xrotation
										End Site
										{
											OFFSET -0.67135 -0.00000 0.00000
										}
									}
								}
								JOINT RThumb
								{
									OFFSET 0 0 0
									CHANNELS 3 Zrotation Yrotation Xrotation
									End Site
									{
										OFFSET -0.68160 -0.00000 0.68160
									}
								}
							}
						}
					}
				}
			}
		}
	}
}
MOTION
Frames: 14
Frame Time: .0083333
-1.3468 17.8807 46.5181 0 0 0 0 0 0 -21 0 0 0 0 0 0 0 0 0 0 0 0 0 0 21 0 0 0 0 0 0 0 0 0 0 0 0 0 0 0 0 0 0 0 0 0 0 -16 0 0 21 0 0 11 0 0 0 -8 0 0 0 0 0 0 0 0 0 0 0 0 0 0 0 0 0 0 0 0 8 0 0 0 0 0 0 0 0 0 0 0 0 0 0 0 0 0
-1.3468 17.8807 46.5181 -175.2930 8.4775 -179.1190 0.0000 0.0000 0.0000 -12.0272 -15.4514 -31.0175 4.2992 12.5483 37.7002 0.0245 4.3103 -7.0169 0.0286 -1.0914 -3.0003 0.0000 0.0000 0.0000 29.7441 4.7134 2.9902 -2.3426 -9.5459 27.5184 -1.8284 -5.5449 -28.0310 -0.1313 -2.3352 6.4331 4.6324 0.1507 21.1403 6.7032 2.9717 3.8923 3.7998 1.8754 -7.7497 -2.6554 -3.1303 -11.8782 -3.7751 -2.2585 19.8618 -1.0090 -1.3679 8.1107 -0.0000 -0.0000 0.0000 -90.0359 10.4570 29.1725 27.5171 -38.6679 -9.8205 -0.0000 0.0000 -6.0457 10.0049 51.2104 7.8294 -7.1250 0.0000 -0.0000 -61.4831 74.3436 -46.4371 -0.0000 -0.0000 0.0000 67.0395 20.9058 -13.4963 -14.7790 23.8374 -3.1361 0.0000 0.0000 6.0099 -7.2364 0.1320 -0.0168 7.1250 -0.0000 -0.0000 15.0786 -29.6659 5.8225
-1.3343 17.8728 46.4565 -174.9940 8.0002 -178.8820 0.0000 0.0000 0.0000 -11.4430 -15.9425 -31.4392 3.9579 12.1041 36.1013 -0.0144 4.5556 -5.9434 0.0402 -1.2935 -3.5568 0.0000 0.0000 0.0000 30.2018 4.5178 3.4319 -2.2009 -9.2726 26.6518 -1.7874 -5.9464 -27.9767 -0.1555 -2.5406 7.0022 4.6479 0.1585 22.1418 7.0620 3.1686 3.3008 4.1315 1.9613 -8.9738 -2.8553 -3.2158 -11.3825 -3.8691 -2.2887 19.9262 -1.0007 -1.3849 8.0456 -0.0000 -0.0000 0.0000 -90.2453 11.3306 29.3920 27.9660 -39.0849 -10.1023 -0.0000 0.0000 -6.0260 9.7387 51.2115 7.6196 -7.1250 0.0000 -0.0000 -61.6510 74.2441 -46.4773 -0.0000 -0.0000 0.0000 67.0639 20.1231 -15.9888 -13.7910 22.4352 -2.7478 0.0000 0.0000 2.1629 -8.1478 -1.3825 0.1979 7.1250 -0.0000 -0.0000 14.6071 -31.1646 5.0869
-1.3443 17.9000 46.3199 -175.1540 8.7992 -178.7510 0.0000 0.0000 0.0000 -11.3726 -16.1853 -31.1821 3.6238 11.6422 34.4778 -0.0364 5.4357 -6.5088 0.0198 -0.9078 -2.4951 0.0000 0.0000 0.0000 29.7842 4.6568 4.3595 -2.0481 -8.9656 25.6878 -1.7730 -5.5472 -27.6567 -0.1453 -2.4562 6.7682 4.6062 0.4838 21.3460 7.0347 3.4864 3.6914 4.0357 2.1296 -8.1276 -2.8709 -3.2078 -11.2805 -3.8554 -2.3243 19.5449 -0.9917 -1.4054 7.9001 0.0000 0.0000 0.0000 -90.2157 11.1320 29.4147 28.4370 -39.5154 -10.4005 -0.0000 0.0000 -6.1965 9.3255 51.2935 7.3024 -7.1250 0.0000 -0.0000 -62.1749 74.1222 -46.8050 0.0000 0.0000 0.0000 67.2536 20.4721 -19.8444 -12.7963 20.9880 -2.3798 0.0000 0.0000 0.6186 -9.0866 -2.1254 0.3398 7.1250 -0.0000 -0.0000 13.9898 -31.9200 4.5978
-1.3506 17.9079 46.2070 -175.2010 9.0071 -178.6930 0.0000 0.0000 0.0000 -11.2185 -16.5715 -30.9937 3.3153 11.1888 32.9193 -0.0618 6.0462 -6.6137 0.0224 -0.9661 -2.6556 0.0000 0.0000 0.0000 29.5946 4.4233 5.0922 -1.9234 -8.7046 24.8755 -1.7425 -5.4564 -27.3972 -0.1118 -2.1557 5.9362 4.6251 0.5853 21.3386 7.1261 3.6407 3.6694 4.0826 2.2068 -8.1610 -3.0390 -3.2302 -10.8214 -3.9202 -2.3208 19.3453 -0.9738 -1.4081 7.7542 -0.0000 0.0000 0.0000 -90.3610 11.3399 29.2035 28.6358 -39.6950 -10.5273 -0.0000 0.0000 -6.3180 9.0002 50.6462 6.9824 -7.1250 0.0000 -0.0000 -60.3052 73.7335 -44.7591 -0.0000 0.0000 0.0000 67.5182 20.1573 -23.2248 -12.1397 20.0137 -2.1498 0.0000 -0.0000 -0.7504 -10.0140 -2.7761 0.4900 7.1250 -0.0000 -0.0000 13.3602 -32.5912 4.1583
-1.3536 17.9080 46.0992 -175.1220 9.0080 -178.4700 0.0000 0.0000 0.0000 -10.8639 -17.0717 -30.9910 3.0237 10.7333 31.3857 -0.0621 6.3193 -7.1157 0.0142 -0.7689 -2.1132 0.0000 0.0000 0.0000 29.5882 4.2326 5.5956 -1.8135 -8.4664 24.1399 -1.6878 -5.5951 -27.0937 -0.0846 -1.8765 5.1643 4.9126 0.5662 20.9528 7.1220 3.6488 3.8657 3.9165 2.2187 -7.7225 -3.0404 -3.1815 -10.9456 -3.8282 -2.3090 19.0921 -0.9425 -1.4035 7.6936 -0.0000 -0.0000 0.0000 -90.2929 11.0351 28.9187 28.7773 -39.8220 -10.6178 -0.0000 0.0000 -6.5868 9.0599 49.9844 6.9627 -7.1250 0.0000 -0.0000 -58.2203 73.4600 -42.6832 -0.0000 -0.0000 0.0000 68.0280 20.1930 -26.3086 -11.7520 19.4317 -2.0190 0.0000 -0.0000 -2.3719 -11.8546 -3.6523 0.7661 7.1250 -0.0000 -0.0000 12.0272 -33.5282 3.4477
-1.3494 17.9048 46.0042 -175.2040 8.7880 -178.2750 0.0000 0.0000 0.0000 -10.6896 -17.5476 -31.1148 2.7755 10.3224 30.0273 -0.0460 6.2653 -7.5836 0.0050 -0.4552 -1.2507 0.0000 0.0000 0.0000 29.4927 4.1111 5.9630 -1.7418 -8.3062 23.6481 -1.6870 -5.6236 -27.1041 -0.0776 -1.7975 4.9464 4.9693 0.6284 20.8820 7.0788 3.7364 4.0298 3.8129 2.2698 -7.5015 -2.9104 -3.2468 -11.6242 -3.7553 -2.4426 19.1482 -0.9671 -1.4723 7.8311 -0.0000 -0.0000 0.0000 -90.0434 10.4939 28.9634 28.8126 -39.8536 -10.6404 -0.0000 0.0000 -6.9909 9.4030 49.4035 7.1670 -7.1250 0.0000 -0.0000 -56.2293 73.3088 -40.8478 -0.0000 -0.0000 0.0000 68.6011 20.0966 -29.2671 -11.6021 19.2052 -1.9694 0.0000 -0.0000 -3.5886 -13.5953 -4.2763 1.0331 7.1250 -0.0000 -0.0000 10.7149 -34.2251 2.8753
-1.3392 17.8982 45.9185 -175.2350 8.4352 -178.0280 0.0000 0.0000 0.0000 -10.4126 -18.1145 -31.3356 2.5656 9.9563 28.8353 -0.0237 6.0555 -7.9522 0.0001 -0.0694 -0.1906 0.0000 0.0000 0.0000 29.5109 3.9574 6.2351 -1.6761 -8.1560 23.1890 -1.6332 -5.8082 -26.8300 -0.0451 -1.3710 3.7702 4.9517 0.5707 20.7923 7.1240 3.6545 3.9239 3.8970 2.2275 -7.5710 -3.0710 -3.1892 -10.8544 -3.5314 -2.4543 18.5056 -0.8480 -1.4584 7.4865 0.0000 0.0000 0.0000 -90.0066 10.7076 28.5536 29.0860 -40.0970 -10.8161 -0.0000 0.0000 -7.2232 8.9484 49.5819 6.8360 -7.1250 0.0000 -0.0000 -57.0959 73.2287 -41.4903 0.0000 0.0000 0.0000 69.2485 19.4395 -31.0696 -11.6245 19.2392 -1.9768 0.0000 -0.0000 -4.6715 -15.0115 -4.3341 1.1610 7.1250 -0.0000 -0.0000 9.5718 -34.3432 2.5330
-1.3347 17.8943 45.8201 -175.1930 8.2234 -177.7650 0.0000 0.0000 0.0000 -10.0245 -18.7479 -31.3830 2.3781 9.6128 27.7317 0.0034 5.9669 -8.6082 0.0056 0.4825 1.3259 0.0000 0.0000 0.0000 29.5806 3.9744 6.6202 -1.6217 -8.0291 22.8025 -1.5909 -5.8427 -26.5488 -0.0252 -1.0245 2.8161 4.8711 0.6348 21.3733 7.2745 3.8134 3.5655 4.0567 2.2923 -8.3012 -3.0935 -3.2575 -10.9032 -3.7205 -2.4895 18.5669 -0.9105 -1.4905 7.5139 0.0000 0.0000 0.0000 -90.1676 11.2730 28.2166 29.3729 -40.3498 -11.0014 -0.0000 0.0000 -7.3926 8.9926 49.8694 6.8990 -7.1250 0.0000 -0.0000 -57.9210 73.3815 -42.3467 0.0000 0.0000 0.0000 69.7822 18.2607 -32.0310 -11.8436 19.5697 -2.0496 0.0000 -0.0000 -6.4506 -16.3393 -4.1423 1.2131 7.1250 -0.0000 -0.0000 8.4655 -34.2012 2.2639
-1.3293 17.8911 45.7044 -175.0530 8.2324 -177.6120 0.0000 0.0000 0.0000 -9.5702 -19.2360 -31.2997 2.2188 9.3078 26.7629 -0.0017 6.2204 -8.8296 0.0002 -0.0804 -0.2208 0.0000 0.0000 0.0000 29.7746 4.2481 7.3025 -1.5696 -7.9052 22.4266 -1.6120 -5.5396 -26.5266 -0.0397 -1.2859 3.5357 5.0643 0.6826 21.0803 7.3039 3.9128 3.9559 3.9538 2.3669 -7.7094 -2.8971 -3.2887 -11.9764 -3.9072 -2.5287 18.6229 -1.0294 -1.5420 7.7177 0.0000 0.0000 0.0000 -90.0817 10.4922 27.9028 29.2996 -40.2854 -10.9539 -0.0000 0.0000 -7.9104 9.5900 50.1670 7.3925 -7.1250 0.0000 -0.0000 -58.4065 73.7403 -43.1373 0.0000 0.0000 0.0000 70.4345 18.0098 -32.9867 -12.2443 20.1700 -2.1858 0.0000 -0.0000 -8.5058 -17.3136 -4.1344 1.2874 7.1250 -0.0000 -0.0000 7.6698 -34.2320 2.0419
-1.3264 17.8904 45.5880 -175.2160 8.1821 -177.4780 0.0000 0.0000 0.0000 -9.5402 -19.6546 -31.3940 2.0913 9.0537 25.9635 -0.0239 6.5772 -8.7509 0.0437 -1.3486 -3.7086 0.0000 0.0000 0.0000 29.6077 4.4200 7.8976 -1.5165 -7.7767 22.0377 -1.6171 -5.4438 -26.5091 -0.0423 -1.3267 3.6481 4.9260 0.7505 21.0214 7.2718 3.9548 4.0121 3.9865 2.3902 -7.6232 -2.9001 -3.2940 -12.2587 -3.8282 -2.5578 18.6001 -1.0115 -1.5580 7.7614 -0.0000 -0.0000 0.0000 -90.1126 10.3984 27.3244 29.2366 -40.2300 -10.9132 -0.0000 0.0000 -8.4114 10.0739 50.2626 7.7794 -7.1250 0.0000 -0.0000 -58.3682 73.9639 -43.3397 -0.0000 -0.0000 0.0000 71.2136 17.1198 -33.1863 -12.8159 21.0168 -2.3868 0.0000 -0.0000 -10.9453 -17.5370 -3.8690 1.2215 7.1250 -0.0000 -0.0000 7.4580 -33.9653 2.0333
-1.3230 17.8822 45.4761 -175.4130 8.0026 -177.4790 0.0000 0.0000 0.0000 -9.6555 -19.9678 -31.4548 2.0080 8.8828 25.4294 -0.0437 6.7051 -8.3863 0.1053 -2.0925 -5.7612 0.0000 0.0000 0.0000 29.4460 4.4009 8.6165 -1.4507 -7.6134 21.5458 -1.5761 -5.6981 -26.3591 -0.0263 -1.0475 2.8796 4.7183 0.6989 21.2073 7.2641 3.8524 3.8904 4.1220 2.3358 -7.8634 -3.0792 -3.2161 -11.7790 -3.7031 -2.4767 18.2733 -0.9202 -1.5114 7.5734 0.0000 0.0000 0.0000 -90.1517 10.8317 26.6409 29.2688 -40.2584 -10.9340 -0.0000 0.0000 -9.1584 10.3006 50.1063 7.9381 -7.1250 0.0000 -0.0000 -57.7167 73.9771 -42.7978 0.0000 0.0000 0.0000 71.9466 15.7765 -32.6185 -13.4639 21.9632 -2.6243 0.0000 -0.0000 -13.6064 -18.3895 -4.0302 1.3385 7.1250 -0.0000 -0.0000 6.7795 -34.1661 1.8128
-1.3146 17.8633 45.3692 -175.5550 7.6426 -177.5170 0.0000 0.0000 0.0000 -9.7678 -20.2031 -31.4455 1.9448 8.7502 25.0169 -0.0332 6.3472 -8.1227 0.0799 -1.8234 -5.0178 0.0000 0.0000 0.0000 29.3721 4.1933 9.1803 -1.4125 -7.5169 21.2561 -1.5423 -5.9018 -26.2328 -0.0207 -0.9290 2.5535 4.5128 0.6382 21.6385 7.2975 3.7768 3.6929 4.2918 2.2950 -8.3232 -3.2141 -3.1447 -11.3167 -3.6235 -2.4014 17.9723 -0.8530 -1.4681 7.3962 0.0000 0.0000 0.0000 -90.1957 11.3952 26.0258 29.3420 -40.3227 -10.9814 -0.0000 0.0000 -9.8148 10.5520 49.7608 8.0929 -7.1250 0.0000 -0.0000 -56.4571 73.9083 -41.6589 0.0000 0.0000 0.0000 72.6643 14.3752 -32.5932 -14.1248 22.9128 -2.8765 0.0000 -0.0000 -15.8885 -19.4831 -4.2643 1.5069 7.1250 -0.0000 -0.0000 5.9073 -34.4555 1.5356
-1.3217 17.8585 45.2110 -175.4660 8.1256 -177.4090 0.0000 0.0000 0.0000 -9.4785 -20.5705 -31.2175 1.9322 8.7235 24.9340 -0.0285 6.7504 -8.8927 0.0171 -0.8435 -2.3183 0.0000 0.0000 0.0000 29.2494 4.2689 9.8301 -1.3756 -7.4222 20.9725 -1.5281 -5.5868 -25.9463 -0.0085 -0.5958 1.6372 4.6107 0.9165 21.5548 7.2805 4.1455 3.6939 4.1122 2.4646 -8.2882 -3.2279 -3.2323 -11.4398 -3.5337 -2.5197 18.1301 -0.8368 -1.5193 7.4706 -0.0000 -0.0000 0.0000 -90.0717 11.6666 25.6923 29.2812 -40.2692 -10.9420 -0.0000 0.0000 -10.5054 10.9889 49.3877 8.3854 -7.1250 0.0000 -0.0000 -54.9813 73.8885 -40.3994 -0.0000 -0.0000 0.0000 73.4273 13.0501 -33.0823 -14.8641 23.9565 -3.1706 0.0000 -0.0000 -17.8878 -19.8796 -4.3889 1.5850 7.1250 -0.0000 -0.0000 5.5934 -34.6033 1.4332
